Coordinates
version=1
nRows=11
nColumns=36
inDegrees=yes

Units are S.I. units (second, meters, Newtons, ...)
If the header above contains a line with 'inDegrees', this indicates whether rotational values are in degrees (yes) or radians (no).

endheader
time	pelvis_tilt	pelvis_list	pelvis_rotation	pelvis_tx	pelvis_ty	pelvis_tz	hip_flexion_r	hip_adduction_r	hip_rotation_r	knee_angle_r	knee_angle_r_beta	ankle_angle_r	subtalar_angle_r	mtp_angle_r	hip_flexion_l	hip_adduction_l	hip_rotation_l	knee_angle_l	knee_angle_l_beta	ankle_angle_l	subtalar_angle_l	mtp_angle_l	lumbar_extension	lumbar_bending	lumbar_rotation	arm_flex_r	arm_add_r	arm_rot_r	elbow_flex_r	pro_sup_r	arm_flex_l	arm_add_l	arm_rot_l	elbow_flex_l	pro_sup_l
      1.97083330	    -16.12226891	      1.04071368	      0.50411233	     -0.88406791	      1.08105086	     -0.08386846	     42.47276270	     -1.17494884	      2.95854547	     69.82530392	      1.21868145	     32.59540823	    -17.87017340	     -7.49999987	     42.18007149	      0.61125085	      1.19432297	     68.77990617	      1.20043582	     32.26065865	    -16.64784688	     -7.49999987	    -37.60455663	      0.71367394	      1.90344978	     40.56697967	    -16.69790962	     12.16466398	     67.99058456	     90.16333844	     50.90659659	    -10.70502237	     17.43541201	     70.04941314	     76.61452213
      1.97500000	    -16.35646290	      1.16988915	      0.43463207	     -0.88412027	      1.07655551	     -0.07961838	     42.70796386	     -0.84863762	      3.22472670	     70.23618184	      1.22585263	     33.07400434	    -17.83732220	     -7.49999987	     42.16034561	      0.56792104	      1.19630146	     68.92648691	      1.20299414	     32.43279071	    -17.04433183	     -7.49999987	    -36.67639319	      0.34743773	      2.02114150	     40.57213308	    -16.91938889	     12.40316339	     68.46307801	     90.39108381	     50.88479662	    -10.61891330	     17.84245708	     70.87086186	     76.84765572
      1.97916670	    -16.48986157	      1.11849675	      0.29884904	     -0.88093521	      1.07980068	     -0.07965508	     42.54292109	     -0.41255039	      3.41681947	     70.10612039	      1.22358263	     33.36752257	    -17.88566049	     -7.49999987	     41.93483817	      0.38029493	      1.26673429	     68.87109341	      1.20202734	     32.38547214	    -17.42615232	     -7.49999987	    -36.01539110	      0.13822037	      2.24194658	     40.84924952	    -16.92254668	     12.52134909	     68.66614007	     90.49298735	     50.96388632	    -10.35883220	     18.07642706	     71.35014820	     76.95166014
      1.98333330	    -16.31894102	      1.09743274	      0.29693774	     -0.87190923	      1.08201032	     -0.07892991	     41.61545563	     -0.18714006	      3.48384212	     69.54790345	      1.21383990	     33.70226778	    -17.67074409	     -7.49999987	     41.17267884	      0.42312530	      1.52113139	     68.48869680	      1.19535326	     32.29160370	    -17.36380845	     -7.49999987	    -35.71792522	     -0.03083258	      2.34089494	     41.05315814	    -17.01502176	     12.76526072	     69.11899741	     90.72567020	     51.14947353	    -10.42371453	     18.52712358	     72.00493819	     77.18641482
      1.98750000	    -16.28475515	      1.11184055	      0.24449522	     -0.86541008	      1.07744449	     -0.08102697	     40.88611837	     -0.14126107	      3.62014317	     69.43547328	      1.21187763	     33.96670449	    -17.80896988	     -7.49999987	     40.45603831	      0.49161179	      1.59424332	     68.42353871	      1.19421604	     32.50870811	    -17.42252902	     -7.49999987	    -35.16020953	     -0.10240141	      2.39918937	     41.13610691	    -17.24494653	     13.22325918	     69.75253445	     87.80427845	     51.25096398	    -10.73623839	     19.03586286	     72.67702087	     75.48169940
      1.99166670	    -16.39595752	      1.08851930	      0.23530619	     -0.85879763	      1.07325565	     -0.08309998	     40.54432836	     -0.28411596	      3.60850630	     69.75864146	      1.21751798	     34.51191463	    -17.85959814	     -7.49999987	     40.07544526	      0.64207752	      1.60177382	     68.87385682	      1.20207557	     32.89940651	    -17.68870584	     -7.49999987	    -34.25417318	     -0.02258151	      2.41483122	     41.13079483	    -17.65025789	     13.91345966	     70.45854909	     87.65491058	     51.14897255	    -11.10055442	     19.81217041	     73.30244914	     75.41085609
      1.99583330	    -16.78431355	      0.95999292	      0.27376014	     -0.85583152	      1.07173110	     -0.08164243	     40.48548083	     -0.14869435	      3.60409955	     69.83658464	      1.21887834	     34.95987705	    -18.25899288	     -7.49999987	     40.12710502	      0.69527719	      1.72489724	     69.25358477	      1.20870307	     33.09514867	    -18.01801572	     -7.49999987	    -33.05318519	      0.08346544	      2.44937686	     40.75685331	    -17.80314155	     13.53526289	     71.28004888	     92.85517739	     50.82120162	    -11.09207377	     19.41687509	     73.93841227	     79.45246137
      2.00000000	    -17.35241999	      0.70625527	      0.37690430	     -0.85070982	      1.06777231	     -0.08085968	     40.57180650	      0.10718219	      3.40202841	     69.92994048	      1.22050771	     35.92321289	    -18.01483065	     -7.49999987	     40.43899006	      0.63112321	      2.13574647	     69.69071074	      1.21633236	     33.47566910	    -18.33613520	     -7.49999987	    -31.61240782	      0.37237231	      2.56521728	     40.40675840	    -18.25963686	     14.00924663	     72.25428819	     91.70647954	     50.48970096	    -11.33469621	     19.80686984	     74.75382383	     78.62314060
      2.00416670	    -17.97337086	      0.36769429	      0.48289887	     -0.84483392	      1.06586777	     -0.08104667	     40.51489818	      0.45095589	      3.21899984	     69.72860329	      1.21699371	     36.78654101	    -17.79775742	     -7.49999987	     40.90636479	      0.33073816	      2.48513947	     70.17459632	      1.22477776	     33.62881340	    -18.92334364	     -7.49999987	    -30.01757627	      0.66864732	      2.66431686	     39.95985380	    -18.47131583	     14.27676035	     72.77267852	     89.92586258	     50.18476600	    -11.53748379	     20.05070713	     75.20548242	     76.93733072
      2.00833330	    -18.29607521	      0.17316856	      0.62880141	     -0.83786253	      1.06650855	     -0.08531751	     40.00167070	      0.35702728	      2.97086795	     69.30171652	      1.20954313	     37.73161496	    -17.04825715	     -7.49999987	     40.83989089	      0.43931874	      2.79320714	     70.44719549	      1.22953551	     33.27332372	    -20.07849361	     -7.49999987	    -28.82839930	      1.10289987	      2.60974146	     39.64531909	    -19.09578463	     14.95986406	     74.05143688	     90.53510984	     49.93564584	    -12.05447393	     20.49465967	     75.96817743	     77.54055278
      2.01250000	    -18.65277319	     -0.12663586	      0.80668186	     -0.83731257	      1.06742567	     -0.08416912	     39.70701198	      0.55075472	      2.75715001	     68.78663351	      1.20055324	     38.11463567	    -16.92668337	     -7.49999987	     40.96386818	      0.27552262	      2.96131581	     70.76395507	      1.23506401	     32.27604722	    -21.96687695	     -7.49999987	    -27.83380503	      1.39001667	      2.42914475	     39.49172808	    -19.37561377	     15.31104145	     74.91588950	     90.97475667	     50.28265018	    -12.77874230	     21.16332682	     76.45842920	     78.04849095
